<svg width="540" height="540" viewBox="0 0 540 540" fill="none" xmlns="http://www.w3.org/2000/svg">
<rect x="1.5" y="1.5" width="537" height="537" rx="6.5" fill="#8D7A7A"/>
<circle cx="220" cy="481" r="8" transform="rotate(-90 220 481)" fill="#C3B39B" stroke="black" stroke-width="2"/>
<circle cx="214" cy="458" r="8" transform="rotate(-90 214 458)" fill="#C3B39B" stroke="black" stroke-width="2"/>
<circle cx="180" cy="394" r="8" transform="rotate(-90 180 394)" fill="#C3B39B" stroke="black" stroke-width="2"/>
<circle cx="204" cy="434" r="8" transform="rotate(-90 204 434)" fill="#C3B39B" stroke="black" stroke-width="2"/>
<circle cx="193" cy="414" r="8" transform="rotate(-90 193 414)" fill="#C3B39B" stroke="black" stroke-width="2"/>
<circle cx="164" cy="376" r="8" transform="rotate(-90 164 376)" fill="#C3B39B" stroke="black" stroke-width="2"/>
<circle cx="145" cy="360" r="8" transform="rotate(-90 145 360)" fill="#C3B39B" stroke="black" stroke-width="2"/>
<circle cx="126" cy="346" r="8" transform="rotate(-90 126 346)" fill="#C3B39B" stroke="black" stroke-width="2"/>
<circle cx="105" cy="335" r="8" transform="rotate(-90 105 335)" fill="#C3B39B" stroke="black" stroke-width="2"/>
<circle cx="81.9999" cy="326" r="8" transform="rotate(-90 81.9999 326)" fill="#C3B39B" stroke="black" stroke-width="2"/>
<circle cx="58.9999" cy="320" r="8" transform="rotate(-90 58.9999 320)" fill="#C3B39B" stroke="black" stroke-width="2"/>
<circle cx="97.6985" cy="424.698" r="8" transform="rotate(45 97.6985 424.698)" fill="#C3B39B" stroke="black" stroke-width="2"/>
<circle cx="114.669" cy="441.669" r="8" transform="rotate(45 114.669 441.669)" fill="#C3B39B" stroke="black" stroke-width="2"/>
<circle cx="131.64" cy="458.64" r="8" transform="rotate(45 131.64 458.64)" fill="#C3B39B" stroke="black" stroke-width="2"/>
<circle cx="80.7279" cy="407.728" r="8" transform="rotate(45 80.7279 407.728)" fill="#C3B39B" stroke="black" stroke-width="2"/>
<circle cx="34.8915" cy="317.892" r="8" transform="rotate(-6 34.8915 317.892)" fill="#C3B39B" stroke="black" stroke-width="2"/>
<circle cx="34.8915" cy="269.892" r="8" transform="rotate(-6 34.8915 269.892)" fill="#C3B39B" stroke="black" stroke-width="2"/>
<circle cx="34.8915" cy="292.892" r="8" transform="rotate(-6 34.8915 292.892)" fill="#C3B39B" stroke="black" stroke-width="2"/>
<circle cx="107" cy="270" r="8" transform="rotate(-180 107 270)" fill="#C3B39B" stroke="black" stroke-width="2"/>
<circle cx="83" cy="270" r="8" transform="rotate(-180 83 270)" fill="#C3B39B" stroke="black" stroke-width="2"/>
<circle cx="59" cy="270" r="8" transform="rotate(-180 59 270)" fill="#C3B39B" stroke="black" stroke-width="2"/>
<circle cx="131" cy="270" r="8" transform="rotate(-180 131 270)" fill="#C3B39B" stroke="black" stroke-width="2"/>
<circle cx="34.8915" cy="245.892" r="8" transform="rotate(-6 34.8915 245.892)" fill="#C3B39B" stroke="black" stroke-width="2"/>
<circle cx="34.8915" cy="222.891" r="8" transform="rotate(-6 34.8915 222.891)" fill="#BA8B8B" stroke="black" stroke-width="2"/>
<circle cx="59" cy="220" r="8" fill="#C3B39B" stroke="black" stroke-width="2"/>
<circle cx="82" cy="214" r="8" fill="#C3B39B" stroke="black" stroke-width="2"/>
<circle cx="146" cy="180" r="8" fill="#C3B39B" stroke="black" stroke-width="2"/>
<circle cx="106" cy="204" r="8" fill="#C3B39B" stroke="black" stroke-width="2"/>
<circle cx="126" cy="193" r="8" fill="#C3B39B" stroke="black" stroke-width="2"/>
<circle cx="164" cy="164" r="8" fill="#C3B39B" stroke="black" stroke-width="2"/>
<circle cx="180" cy="145" r="8" fill="#C3B39B" stroke="black" stroke-width="2"/>
<circle cx="194" cy="126" r="8" fill="#C3B39B" stroke="black" stroke-width="2"/>
<circle cx="205" cy="105" r="8" fill="#C3B39B" stroke="black" stroke-width="2"/>
<circle cx="214" cy="81.9999" r="8" fill="#C3B39B" stroke="black" stroke-width="2"/>
<circle cx="220" cy="58.9999" r="8" fill="#C3B39B" stroke="black" stroke-width="2"/>
<circle cx="222" cy="35" r="8" fill="#C3B39B" stroke="black" stroke-width="2"/>
<circle cx="115.669" cy="97.6985" r="8" transform="rotate(135 115.669 97.6985)" fill="#C3B39B" stroke="black" stroke-width="2"/>
<circle cx="98.6985" cy="114.669" r="8" transform="rotate(135 98.6985 114.669)" fill="#C3B39B" stroke="black" stroke-width="2"/>
<circle cx="81.7279" cy="131.64" r="8" transform="rotate(135 81.7279 131.64)" fill="#C3B39B" stroke="black" stroke-width="2"/>
<circle cx="132.64" cy="80.7279" r="8" transform="rotate(135 132.64 80.7279)" fill="#C3B39B" stroke="black" stroke-width="2"/>
<circle cx="246" cy="35.0001" r="8" transform="rotate(90 246 35.0001)" fill="#C3B39B" stroke="black" stroke-width="2"/>
<circle cx="270" cy="83" r="8" transform="rotate(90 270 83)" fill="#C3B39B" stroke="black" stroke-width="2"/>
<circle cx="270" cy="107" r="8" transform="rotate(90 270 107)" fill="#C3B39B" stroke="black" stroke-width="2"/>
<circle cx="270" cy="131" r="8" transform="rotate(90 270 131)" fill="#C3B39B" stroke="black" stroke-width="2"/>
<circle cx="270" cy="59" r="8" transform="rotate(90 270 59)" fill="#C3B39B" stroke="black" stroke-width="2"/>
<circle cx="270" cy="35.0001" r="8" transform="rotate(90 270 35.0001)" fill="#C3B39B" stroke="black" stroke-width="2"/>
<circle cx="294" cy="35.0001" r="8" transform="rotate(90 294 35.0001)" fill="#C3B39B" stroke="black" stroke-width="2"/>
<circle cx="318" cy="35.0001" r="8" transform="rotate(90 318 35.0001)" fill="#BA8B8B" stroke="black" stroke-width="2"/>
<circle cx="320" cy="59" r="8" transform="rotate(90 320 59)" fill="#C3B39B" stroke="black" stroke-width="2"/>
<circle cx="326" cy="82" r="8" transform="rotate(90 326 82)" fill="#C3B39B" stroke="black" stroke-width="2"/>
<circle cx="360" cy="146" r="8" transform="rotate(90 360 146)" fill="#C3B39B" stroke="black" stroke-width="2"/>
<circle cx="336" cy="106" r="8" transform="rotate(90 336 106)" fill="#C3B39B" stroke="black" stroke-width="2"/>
<circle cx="347" cy="126" r="8" transform="rotate(90 347 126)" fill="#C3B39B" stroke="black" stroke-width="2"/>
<circle cx="376" cy="164" r="8" transform="rotate(90 376 164)" fill="#C3B39B" stroke="black" stroke-width="2"/>
<circle cx="395" cy="180" r="8" transform="rotate(90 395 180)" fill="#C3B39B" stroke="black" stroke-width="2"/>
<circle cx="414" cy="194" r="8" transform="rotate(90 414 194)" fill="#C3B39B" stroke="black" stroke-width="2"/>
<circle cx="435" cy="205" r="8" transform="rotate(90 435 205)" fill="#C3B39B" stroke="black" stroke-width="2"/>
<circle cx="458" cy="214" r="8" transform="rotate(90 458 214)" fill="#C3B39B" stroke="black" stroke-width="2"/>
<circle cx="481" cy="220" r="8" transform="rotate(90 481 220)" fill="#C3B39B" stroke="black" stroke-width="2"/>
<circle cx="424.698" cy="96.6985" r="8" transform="rotate(45 424.698 96.6985)" fill="#C3B39B" stroke="black" stroke-width="2"/>
<circle cx="441.669" cy="113.669" r="8" transform="rotate(45 441.669 113.669)" fill="#C3B39B" stroke="black" stroke-width="2"/>
<circle cx="458.64" cy="130.64" r="8" transform="rotate(45 458.64 130.64)" fill="#C3B39B" stroke="black" stroke-width="2"/>
<circle cx="407.728" cy="79.7279" r="8" transform="rotate(45 407.728 79.7279)" fill="#C3B39B" stroke="black" stroke-width="2"/>
<circle cx="457" cy="270" r="8" transform="rotate(-180 457 270)" fill="#C3B39B" stroke="black" stroke-width="2"/>
<circle cx="433" cy="270" r="8" transform="rotate(-180 433 270)" fill="#C3B39B" stroke="black" stroke-width="2"/>
<circle cx="409" cy="270" r="8" transform="rotate(-180 409 270)" fill="#C3B39B" stroke="black" stroke-width="2"/>
<circle cx="481" cy="270" r="8" transform="rotate(-180 481 270)" fill="#C3B39B" stroke="black" stroke-width="2"/>
<circle cx="505" cy="222" r="8" transform="rotate(90 505 222)" fill="#C3B39B" stroke="black" stroke-width="2"/>
<circle cx="505" cy="246" r="8" transform="rotate(-180 505 246)" fill="#C3B39B" stroke="black" stroke-width="2"/>
<circle cx="505" cy="270" r="8" transform="rotate(-180 505 270)" fill="#C3B39B" stroke="black" stroke-width="2"/>
<circle cx="505" cy="318" r="8" transform="rotate(-180 505 318)" fill="#BA8B8B" stroke="black" stroke-width="2"/>
<circle cx="505" cy="294" r="8" transform="rotate(-180 505 294)" fill="#C3B39B" stroke="black" stroke-width="2"/>
<circle cx="481" cy="320" r="8" transform="rotate(-180 481 320)" fill="#C3B39B" stroke="black" stroke-width="2"/>
<circle cx="458" cy="326" r="8" transform="rotate(-180 458 326)" fill="#C3B39B" stroke="black" stroke-width="2"/>
<circle cx="394" cy="360" r="8" transform="rotate(-180 394 360)" fill="#C3B39B" stroke="black" stroke-width="2"/>
<circle cx="434" cy="336" r="8" transform="rotate(-180 434 336)" fill="#C3B39B" stroke="black" stroke-width="2"/>
<circle cx="414" cy="347" r="8" transform="rotate(-180 414 347)" fill="#C3B39B" stroke="black" stroke-width="2"/>
<circle cx="376" cy="376" r="8" transform="rotate(-180 376 376)" fill="#C3B39B" stroke="black" stroke-width="2"/>
<circle cx="360" cy="395" r="8" transform="rotate(-180 360 395)" fill="#C3B39B" stroke="black" stroke-width="2"/>
<circle cx="346" cy="414" r="8" transform="rotate(-180 346 414)" fill="#C3B39B" stroke="black" stroke-width="2"/>
<circle cx="335" cy="435" r="8" transform="rotate(-180 335 435)" fill="#C3B39B" stroke="black" stroke-width="2"/>
<circle cx="326" cy="458" r="8" transform="rotate(-180 326 458)" fill="#C3B39B" stroke="black" stroke-width="2"/>
<circle cx="320" cy="481" r="8" transform="rotate(-180 320 481)" fill="#C3B39B" stroke="black" stroke-width="2"/>
<circle cx="441.485" cy="425.515" r="8" transform="rotate(135 441.485 425.515)" fill="#C3B39B" stroke="black" stroke-width="2"/>
<circle cx="424.515" cy="442.485" r="8" transform="rotate(135 424.515 442.485)" fill="#C3B39B" stroke="black" stroke-width="2"/>
<circle cx="407.544" cy="459.456" r="8" transform="rotate(135 407.544 459.456)" fill="#C3B39B" stroke="black" stroke-width="2"/>
<circle cx="458.456" cy="408.544" r="8" transform="rotate(135 458.456 408.544)" fill="#C3B39B" stroke="black" stroke-width="2"/>
<circle cx="270" cy="505" r="8" transform="rotate(-90 270 505)" fill="#C3B39B" stroke="black" stroke-width="2"/>
<circle cx="246" cy="505" r="8" transform="rotate(-90 246 505)" fill="#C3B39B" stroke="black" stroke-width="2"/>
<circle cx="294" cy="505" r="8" transform="rotate(-90 294 505)" fill="#C3B39B" stroke="black" stroke-width="2"/>
<circle cx="222" cy="505" r="8" transform="rotate(-90 222 505)" fill="#A5BA8B" stroke="black" stroke-width="2"/>
<circle cx="318" cy="505" r="8" transform="rotate(-180 318 505)" fill="#C3B39B" stroke="black" stroke-width="2"/>
<circle cx="270" cy="433" r="8" transform="rotate(90 270 433)" fill="#C3B39B" stroke="black" stroke-width="2"/>
<circle cx="270" cy="457" r="8" transform="rotate(90 270 457)" fill="#C3B39B" stroke="black" stroke-width="2"/>
<circle cx="270" cy="481" r="8" transform="rotate(90 270 481)" fill="#C3B39B" stroke="black" stroke-width="2"/>
<circle cx="270" cy="409" r="8" transform="rotate(90 270 409)" fill="#C3B39B" stroke="black" stroke-width="2"/>
<rect x="1.5" y="1.5" width="537" height="537" rx="6.5" stroke="black" stroke-width="3"/>
</svg>
